<mxfile host="app.diagrams.net" modified="2024-05-15T15:10:05.762Z" agent="Mozilla/5.0 (Windows NT 10.0; Win64; x64) AppleWebKit/537.36 (KHTML, like Gecko) Chrome/123.0.0.0 Safari/537.36 OPR/109.0.0.0" etag="9JZuF6QfsTOOWVjfKrvw" version="24.4.0" type="github">
  <diagram name="Página-1" id="Sl6TZ-9I9SYVLZT7r-Xk">
    <mxGraphModel dx="1393" dy="789" grid="1" gridSize="10" guides="1" tooltips="1" connect="1" arrows="1" fold="1" page="1" pageScale="1" pageWidth="827" pageHeight="1169" math="0" shadow="0">
      <root>
        <mxCell id="0" />
        <mxCell id="1" parent="0" />
        <mxCell id="gfu2MTK6N_kagIDdUxiq-1" style="edgeStyle=orthogonalEdgeStyle;rounded=0;orthogonalLoop=1;jettySize=auto;html=1;exitX=0.5;exitY=1;exitDx=0;exitDy=0;entryX=0.5;entryY=0;entryDx=0;entryDy=0;" edge="1" parent="1" source="KUi3rzj7QOhRPI5TdXvz-2" target="KUi3rzj7QOhRPI5TdXvz-9">
          <mxGeometry relative="1" as="geometry" />
        </mxCell>
        <mxCell id="KUi3rzj7QOhRPI5TdXvz-2" value="&lt;p style=&quot;margin:0px;margin-top:4px;text-align:center;&quot;&gt;&lt;i&gt;&amp;lt;&amp;lt;Interface&amp;gt;&amp;gt;&lt;/i&gt;&lt;br&gt;&lt;b&gt;Gerenciar Caixa&lt;/b&gt;&lt;/p&gt;&lt;hr size=&quot;1&quot; style=&quot;border-style:solid;&quot;&gt;&lt;p style=&quot;margin:0px;margin-left:4px;&quot;&gt;+ registrarPedido(DadosPedido): void&lt;/p&gt;&lt;p style=&quot;margin:0px;margin-left:4px;&quot;&gt;+ gerarMetricasCaixa(): csv&lt;/p&gt;" style="verticalAlign=top;align=left;overflow=fill;html=1;whiteSpace=wrap;" parent="1" vertex="1">
          <mxGeometry x="274" y="20" width="280" height="120" as="geometry" />
        </mxCell>
        <mxCell id="gfu2MTK6N_kagIDdUxiq-5" style="edgeStyle=orthogonalEdgeStyle;rounded=0;orthogonalLoop=1;jettySize=auto;html=1;exitX=0.5;exitY=1;exitDx=0;exitDy=0;entryX=0.5;entryY=0;entryDx=0;entryDy=0;" edge="1" parent="1" source="KUi3rzj7QOhRPI5TdXvz-9" target="gfu2MTK6N_kagIDdUxiq-3">
          <mxGeometry relative="1" as="geometry" />
        </mxCell>
        <mxCell id="gfu2MTK6N_kagIDdUxiq-6" style="edgeStyle=orthogonalEdgeStyle;rounded=0;orthogonalLoop=1;jettySize=auto;html=1;exitX=0.5;exitY=1;exitDx=0;exitDy=0;entryX=0.5;entryY=0;entryDx=0;entryDy=0;" edge="1" parent="1" source="KUi3rzj7QOhRPI5TdXvz-9" target="gfu2MTK6N_kagIDdUxiq-4">
          <mxGeometry relative="1" as="geometry" />
        </mxCell>
        <mxCell id="KUi3rzj7QOhRPI5TdXvz-9" value="&lt;p style=&quot;margin:0px;margin-top:4px;text-align:center;&quot;&gt;&lt;i&gt;&amp;lt;&amp;lt;MiddleWare&amp;gt;&amp;gt;&lt;/i&gt;&lt;br&gt;&lt;b&gt;Gerenciar Caixa&lt;/b&gt;&lt;/p&gt;&lt;hr size=&quot;1&quot; style=&quot;border-style:solid;&quot;&gt;&lt;p style=&quot;margin:0px;margin-left:4px;&quot;&gt;+ registrarPedido(DadosPedido): void&lt;/p&gt;&lt;p style=&quot;margin:0px;margin-left:4px;&quot;&gt;+ gerarMetricasCaixa(): csv&lt;/p&gt;" style="verticalAlign=top;align=left;overflow=fill;html=1;whiteSpace=wrap;" parent="1" vertex="1">
          <mxGeometry x="274" y="210" width="280" height="120" as="geometry" />
        </mxCell>
        <mxCell id="KUi3rzj7QOhRPI5TdXvz-10" style="edgeStyle=orthogonalEdgeStyle;rounded=0;orthogonalLoop=1;jettySize=auto;html=1;exitX=0.5;exitY=1;exitDx=0;exitDy=0;" parent="1" source="KUi3rzj7QOhRPI5TdXvz-11" target="KUi3rzj7QOhRPI5TdXvz-12" edge="1">
          <mxGeometry relative="1" as="geometry">
            <mxPoint x="414" y="850" as="targetPoint" />
          </mxGeometry>
        </mxCell>
        <mxCell id="KUi3rzj7QOhRPI5TdXvz-11" value="&lt;p style=&quot;margin:0px;margin-top:4px;text-align:center;&quot;&gt;&lt;b&gt;Gerenciar Caixa&lt;/b&gt;&lt;/p&gt;&lt;hr size=&quot;1&quot; style=&quot;border-style:solid;&quot;&gt;&lt;p style=&quot;margin:0px;margin-left:4px;&quot;&gt;+ registrarPedido(DadosPedido): void&lt;/p&gt;&lt;p style=&quot;margin:0px;margin-left:4px;&quot;&gt;+ gerarMetricasCaixa(): csv&lt;/p&gt;" style="verticalAlign=top;align=left;overflow=fill;html=1;whiteSpace=wrap;" parent="1" vertex="1">
          <mxGeometry x="274" y="560" width="280" height="120" as="geometry" />
        </mxCell>
        <mxCell id="KUi3rzj7QOhRPI5TdXvz-12" value="BD" style="shape=cylinder3;whiteSpace=wrap;html=1;boundedLbl=1;backgroundOutline=1;size=15;" parent="1" vertex="1">
          <mxGeometry x="384" y="730" width="60" height="80" as="geometry" />
        </mxCell>
        <mxCell id="gfu2MTK6N_kagIDdUxiq-7" style="edgeStyle=orthogonalEdgeStyle;rounded=0;orthogonalLoop=1;jettySize=auto;html=1;exitX=0.5;exitY=1;exitDx=0;exitDy=0;entryX=0.5;entryY=0;entryDx=0;entryDy=0;" edge="1" parent="1" source="gfu2MTK6N_kagIDdUxiq-3" target="KUi3rzj7QOhRPI5TdXvz-11">
          <mxGeometry relative="1" as="geometry" />
        </mxCell>
        <mxCell id="gfu2MTK6N_kagIDdUxiq-3" value="&lt;p style=&quot;margin:0px;margin-top:4px;text-align:center;&quot;&gt;&lt;i&gt;&amp;lt;&amp;lt;Component&amp;gt;&amp;gt;&lt;/i&gt;&lt;br&gt;&lt;b&gt;registrarPedido&lt;/b&gt;&lt;/p&gt;&lt;hr size=&quot;1&quot; style=&quot;border-style:solid;&quot;&gt;&lt;p style=&quot;margin:0px;margin-left:4px;&quot;&gt;&amp;gt; entrada: DadosPedido&lt;/p&gt;&lt;p style=&quot;margin:0px;margin-left:4px;&quot;&gt;&amp;lt; saída: void&lt;/p&gt;" style="verticalAlign=top;align=left;overflow=fill;html=1;whiteSpace=wrap;" vertex="1" parent="1">
          <mxGeometry x="250" y="400" width="146" height="80" as="geometry" />
        </mxCell>
        <mxCell id="gfu2MTK6N_kagIDdUxiq-8" style="edgeStyle=orthogonalEdgeStyle;rounded=0;orthogonalLoop=1;jettySize=auto;html=1;exitX=0.5;exitY=1;exitDx=0;exitDy=0;" edge="1" parent="1" source="gfu2MTK6N_kagIDdUxiq-4" target="KUi3rzj7QOhRPI5TdXvz-11">
          <mxGeometry relative="1" as="geometry" />
        </mxCell>
        <mxCell id="gfu2MTK6N_kagIDdUxiq-4" value="&lt;p style=&quot;margin:0px;margin-top:4px;text-align:center;&quot;&gt;&lt;i&gt;&amp;lt;&amp;lt;Component&amp;gt;&amp;gt;&lt;/i&gt;&lt;br&gt;&lt;b&gt;gerarMetricasCaixa&lt;/b&gt;&lt;/p&gt;&lt;hr size=&quot;1&quot; style=&quot;border-style:solid;&quot;&gt;&lt;p style=&quot;margin:0px;margin-left:4px;&quot;&gt;&lt;span style=&quot;background-color: initial;&quot;&gt;&amp;gt; entrada: void&lt;/span&gt;&lt;br&gt;&lt;/p&gt;&lt;p style=&quot;margin:0px;margin-left:4px;&quot;&gt;&lt;span style=&quot;background-color: initial;&quot;&gt;&amp;lt; saída: csv&lt;/span&gt;&lt;/p&gt;" style="verticalAlign=top;align=left;overflow=fill;html=1;whiteSpace=wrap;" vertex="1" parent="1">
          <mxGeometry x="440" y="400" width="130" height="80" as="geometry" />
        </mxCell>
      </root>
    </mxGraphModel>
  </diagram>
</mxfile>
